<svg xmlns="http://www.w3.org/2000/svg" version="1.1" xmlns:xlink="http://www.w3.org/1999/xlink" xmlns:svgjs="http://svgjs.dev/svgjs" width="128" height="128" viewBox="0 0 128 128"><g transform="matrix(0.8046875,0,0,0.8046875,12.336756745904268,7.771869995117186)"><svg viewBox="0 0 88 96" data-background-color="#ffffff" preserveAspectRatio="xMidYMid meet" height="139" width="128" xmlns="http://www.w3.org/2000/svg" xmlns:xlink="http://www.w3.org/1999/xlink"><g id="tight-bounds" transform="matrix(1,0,0,1,0.13946996466431472,0.25950000000000273)"><svg viewBox="0 0 87.72106007067137 95.481" height="95.481" width="87.72106007067137"><g><svg viewBox="0 0 87.72106007067137 95.481" height="95.481" width="87.72106007067137"><g><svg viewBox="0 0 87.72106007067137 95.481" height="95.481" width="87.72106007067137"><g><svg viewBox="0 0 87.72106007067137 95.481" height="95.481" width="87.72106007067137"><g id="textblocktransform"><svg viewBox="0 0 87.72106007067137 95.481" height="95.481" width="87.72106007067137" id="textblock"><g><svg viewBox="0 0 87.72106007067137 95.481" height="95.481" width="87.72106007067137"><g transform="matrix(1,0,0,1,0,0)"><svg width="87.72106007067137" viewBox="2.25 -36.5 39 42.45" height="95.481" data-palette-color="#ed3b43"><path d="M26-31L26-31 15.1-31 15.1-16.55 26-16.55Q29.1-16.55 30.15-18.05 31.2-19.55 31.2-22.3L31.2-22.3 31.2-25.8Q31.2-28.1 29.93-29.55 28.65-31 26-31ZM20.5-20.6L20.5-27 24.25-27Q25.55-27 26-26.33 26.45-25.65 26.45-24.65L26.45-24.65 26.45-22.95Q26.45-21.95 26-21.28 25.55-20.6 24.25-20.6L24.25-20.6 20.5-20.6ZM15.1-16.1L15.1-4.5 14.6-4.5 14.6-31.5 26-31.5Q28.9-31.5 30.3-29.88 31.7-28.25 31.7-25.8L31.7-25.8 31.7-22.35Q31.7-20.05 31.1-18.57 30.5-17.1 28.7-16.55L28.7-16.55 29.25-16.55Q32.3-16.55 33.8-15.18 35.3-13.8 35.3-11.2L35.3-11.2 35.3-4.5 34.8-4.5 34.8-11.2Q34.8-13.65 33.45-14.88 32.1-16.1 29.25-16.1L29.25-16.1 15.1-16.1ZM11 0L18.7 0Q19.65 0 20.08-0.43 20.5-0.85 20.5-1.8L20.5-1.8 20.5-11.6 27.5-11.6Q28.55-11.6 28.98-11.08 29.4-10.55 29.4-9.45L29.4-9.45 29.4-1.8Q29.4-0.85 29.83-0.43 30.25 0 31.2 0L31.2 0 38.95 0Q39.9 0 40.33-0.43 40.75-0.85 40.75-1.8L40.75-1.8 40.75-12.4Q40.75-15.55 39.08-17.45 37.4-19.35 34.7-19.65L34.7-19.65Q36.25-20.3 36.88-21.78 37.5-23.25 37.5-25.35L37.5-25.35 37.5-27.65Q37.5-31.35 35.38-33.68 33.25-36 27.65-36L27.65-36 11-36Q10.05-36 9.63-35.58 9.2-35.15 9.2-34.2L9.2-34.2 9.2-1.8Q9.2-0.85 9.63-0.43 10.05 0 11 0L11 0ZM20.3 0.05L20.3 0.05 13.8 5.45Q13.6 5.65 13.18 5.8 12.75 5.95 12.25 5.95L12.25 5.95 4.55 5.95Q3.35 5.95 2.8 5.4 2.25 4.85 2.25 3.65L2.25 3.65 2.25-28.75Q2.25-29.4 2.43-29.85 2.6-30.3 2.95-30.6L2.95-30.6 9.4-36.05Q9.65-36.25 10.08-36.38 10.5-36.5 11-36.5L11-36.5 27.65-36.5Q33.6-36.5 35.8-34.02 38-31.55 38-27.65L38-27.65 38-25.35Q38-23.5 37.55-22.13 37.1-20.75 36.1-19.9L36.1-19.9 36.05-19.9Q38.4-19.25 39.83-17.3 41.25-15.35 41.25-12.4L41.25-12.4 41.25-1.8Q41.25-1.15 41.08-0.7 40.9-0.25 40.55 0.05L40.55 0.05 34.05 5.45Q33.85 5.65 33.43 5.8 33 5.95 32.5 5.95L32.5 5.95 24.75 5.95Q23.55 5.95 23 5.4 22.45 4.85 22.45 3.65L22.45 3.65 22.45-4Q22.45-4.8 22.15-5.23 21.85-5.65 21.05-5.65L21.05-5.65 21-5.65 21-1.8Q21-1.15 20.83-0.7 20.65-0.25 20.3 0.05Z" opacity="1" transform="matrix(1,0,0,1,0,0)" fill="#ed3b43" class="wordmark-text-0" data-fill-palette-color="primary" id="text-0"></path></svg></g></svg></g></svg></g></svg></g><g></g></svg></g></svg></g><defs></defs></svg><rect width="87.72106007067137" height="95.481" fill="none" stroke="none" visibility="hidden"></rect></g></svg></g></svg>